<!-- Generated by IcoMoon.io -->
<svg version="1.1" xmlns="http://www.w3.org/2000/svg" width="32" height="32" viewBox="0 0 32 32">
<title>free-icon-font-tik-tok-6422207</title>
<path d="M29.953 13.155c-2.852 0-5.496-0.912-7.653-2.461v11.18c0 5.584-4.543 10.125-10.125 10.125-2.157 0-4.159-0.68-5.803-1.835-2.611-1.833-4.323-4.865-4.323-8.291 0-5.584 4.543-10.127 10.127-10.127 0.464 0 0.917 0.039 1.364 0.099v5.616c-0.432-0.135-0.888-0.213-1.364-0.213-2.549 0-4.624 2.075-4.624 4.625 0 1.776 1.008 3.319 2.48 4.093 0.641 0.337 1.371 0.531 2.145 0.531 2.491 0 4.523-1.981 4.616-4.451l0.004-22.047h5.501c0 0.477 0.047 0.943 0.129 1.396 0.388 2.096 1.632 3.895 3.356 5.019 1.2 0.783 2.632 1.24 4.168 1.24v5.5z"></path>
</svg>
