<!-- Generated by IcoMoon.io -->
<svg version="1.1" xmlns="http://www.w3.org/2000/svg" width="32" height="32" viewBox="0 0 32 32">
<title>free-icon-font-instagram-6422200</title>
<path d="M16 2.883c4.272 0 4.779 0.016 6.465 0.093 1.744 0.080 3.54 0.477 4.811 1.748 1.283 1.283 1.668 3.061 1.748 4.811 0.077 1.687 0.093 2.193 0.093 6.465s-0.016 4.779-0.093 6.465c-0.079 1.735-0.485 3.548-1.748 4.811-1.283 1.283-3.060 1.668-4.811 1.748-1.687 0.077-2.193 0.093-6.465 0.093s-4.779-0.016-6.465-0.093c-1.721-0.079-3.559-0.495-4.811-1.748-1.276-1.276-1.668-3.072-1.748-4.811-0.077-1.687-0.093-2.193-0.093-6.465s0.016-4.779 0.093-6.465c0.079-1.728 0.489-3.552 1.748-4.811 1.28-1.28 3.065-1.668 4.811-1.748 1.687-0.077 2.193-0.093 6.465-0.093zM16 0c-4.345 0-4.891 0.019-6.597 0.096-2.473 0.113-4.929 0.801-6.717 2.589-1.795 1.795-2.476 4.245-2.589 6.717-0.077 1.707-0.096 2.252-0.096 6.597s0.019 4.891 0.096 6.597c0.113 2.471 0.804 4.933 2.589 6.717 1.793 1.793 4.248 2.476 6.717 2.589 1.707 0.077 2.252 0.096 6.597 0.096s4.891-0.019 6.597-0.096c2.472-0.113 4.931-0.803 6.717-2.589 1.796-1.796 2.476-4.245 2.589-6.717 0.077-1.707 0.096-2.252 0.096-6.597s-0.019-4.891-0.096-6.597c-0.113-2.473-0.803-4.931-2.589-6.717-1.791-1.791-4.252-2.477-6.717-2.589-1.707-0.077-2.252-0.096-6.597-0.096z"></path>
<path d="M16 7.784c-4.537 0-8.216 3.679-8.216 8.216s3.679 8.216 8.216 8.216 8.216-3.679 8.216-8.216c0-4.537-3.679-8.216-8.216-8.216zM16 21.333c-2.945 0-5.333-2.388-5.333-5.333s2.388-5.333 5.333-5.333 5.333 2.388 5.333 5.333-2.388 5.333-5.333 5.333z"></path>
<path d="M26.461 7.459c0 1.060-0.86 1.92-1.92 1.92s-1.92-0.86-1.92-1.92c0-1.060 0.86-1.92 1.92-1.92s1.92 0.86 1.92 1.92z"></path>
</svg>
