<!-- Generated by IcoMoon.io -->
<svg version="1.1" xmlns="http://www.w3.org/2000/svg" width="32" height="32" viewBox="0 0 32 32">
<title>icons8-facebook-messenger</title>
<path d="M16 1.28c-8.098 0-14.72 6.143-14.72 13.76 0 4.165 2.005 7.863 5.12 10.38v5.72l0.94-0.5 4.62-2.4c1.29 0.345 2.633 0.56 4.040 0.56 8.098 0 14.72-6.143 14.72-13.76s-6.622-13.76-14.72-13.76zM16 2.56c7.453 0 13.44 5.605 13.44 12.48s-5.988 12.48-13.44 12.48c-1.385 0-2.725-0.2-3.98-0.56l-0.24-0.060-0.22 0.12-3.88 2.020v-4.2l-0.24-0.18c-2.985-2.297-4.88-5.755-4.88-9.62 0-6.875 5.987-12.48 13.44-12.48zM14.54 11.34l-7.7 8.16 6.92-3.88 3.7 3.96 7.6-8.24-6.74 3.78z"></path>
</svg>
