<!-- Generated by IcoMoon.io -->
<svg version="1.1" xmlns="http://www.w3.org/2000/svg" width="32" height="32" viewBox="0 0 32 32">
<title>telegram</title>
<path d="M16.028 0c8.835 0.011 15.986 7.192 15.972 16.040-0.014 8.829-7.209 15.981-16.052 15.96-8.828-0.021-15.966-7.213-15.947-16.066 0.019-8.801 7.206-15.945 16.028-15.934zM13.104 22.59c-0.005 0-0.010 0-0.015 0 0 0.083-0.012 0.169 0.003 0.249 0.028 0.149-0.122 0.359 0.094 0.436 0.163 0.058 0.32-0.050 0.451-0.16 0.089-0.075 0.175-0.153 0.259-0.234 0.529-0.507 1.074-1 1.58-1.529 0.234-0.244 0.392-0.245 0.655-0.047 1.156 0.873 2.323 1.731 3.494 2.584 0.824 0.601 1.396 0.379 1.619-0.621 0.166-0.745 0.317-1.495 0.476-2.242 0.713-3.347 1.427-6.695 2.137-10.042 0.089-0.418 0.121-0.845-0.227-1.168-0.352-0.326-0.745-0.169-1.124-0.023-3.192 1.233-6.385 2.466-9.577 3.699-1.922 0.742-3.845 1.48-5.762 2.233-0.306 0.12-0.668 0.285-0.634 0.68 0.032 0.366 0.4 0.449 0.702 0.544 1.094 0.344 2.192 0.671 3.278 1.037 0.397 0.134 0.706 0.103 1.068-0.128 2.794-1.781 5.6-3.539 8.405-5.303 0.154-0.097 0.313-0.188 0.479-0.263 0.105-0.047 0.249-0.080 0.325 0.025 0.088 0.122-0.034 0.209-0.117 0.289-0.072 0.069-0.146 0.136-0.22 0.203-2.273 2.056-4.548 4.111-6.821 6.167-0.159 0.143-0.323 0.267-0.337 0.523-0.052 1.030-0.125 2.061-0.192 3.090z"></path>
</svg>
