<!-- Generated by IcoMoon.io -->
<svg version="1.1" xmlns="http://www.w3.org/2000/svg" width="32" height="32" viewBox="0 0 32 32">
<title>whatsapp</title>
<path d="M15.998 32c-8.831-0.001-15.999-7.171-15.998-16.003 0.001-8.833 7.168-15.998 16.002-15.997s15.999 7.168 15.998 16.002c0 8.831-7.17 15.999-16.002 15.998zM15.78 25.824c1 0.008 1.81-0.074 2.605-0.274 5.343-1.342 8.538-6.673 7.222-12.048-1.245-5.089-6.375-8.355-11.478-7.308-6.378 1.309-9.784 7.915-7.139 13.861 0.116 0.261 0.147 0.506 0.092 0.771-0.304 1.482-0.605 2.963-0.919 4.442-0.133 0.625 0.023 0.797 0.662 0.651 1.49-0.339 2.98-0.678 4.463-1.046 0.238-0.059 0.413-0.018 0.61 0.072 1.291 0.589 2.642 0.893 3.882 0.879z"></path>
<path d="M16 8.158c4.73 0.001 8.39 4.221 7.695 8.875-0.524 3.514-3.3 6.168-6.838 6.586-1.63 0.192-3.139-0.142-4.571-0.89-0.321-0.168-0.612-0.186-0.947-0.099-0.738 0.192-1.483 0.361-2.222 0.549-0.285 0.072-0.343 0.012-0.272-0.287 0.196-0.823 0.342-1.659 0.535-2.482 0.075-0.321-0.088-0.548-0.214-0.791-0.716-1.376-1.036-2.828-0.898-4.38 0.357-4.018 3.7-7.081 7.732-7.080zM18.845 20.751c0.947 0.098 1.731-0.593 2.34-1.562 0.293-0.466 0.118-0.937-0.404-1.116-0.486-0.166-0.99-0.277-1.475-0.448-0.564-0.199-1.007-0.121-1.42 0.358-0.461 0.535-0.693 0.544-1.297 0.176-0.973-0.594-1.81-1.355-2.562-2.206-0.623-0.705-0.631-0.935-0.042-1.675 0.284-0.357 0.331-0.69 0.124-1.099-0.239-0.473-0.431-0.97-0.652-1.454-0.311-0.679-0.781-0.78-1.334-0.294-1.193 1.050-1.461 2.234-0.782 3.781 0.837 1.91 2.318 3.259 4.002 4.408 0.963 0.657 2.012 1.089 3.502 1.131z"></path>
</svg>
